<?xml version="1.0" encoding="UTF-8"?>
<svg id="Capa_2" data-name="Capa 2" xmlns="http://www.w3.org/2000/svg" viewBox="0 0 73.52 42.86">
  <defs>
    <style>
      .cls-1 {
        fill: #fadd2e;
      }

      .cls-1, .cls-2 {
        stroke-width: 0px;
      }

      .cls-2 {
        fill: #fff;
      }
    </style>
  </defs>
  <g id="Capa_1-2" data-name="Capa 1">
    <g>
      <path class="cls-2" d="M41.08,22.47v19.84l11.43-.19c9.17-.19,11.8-.38,13.45-1.03,3.15-1.18,5.03-2.82,6.39-5.69,1.69-3.39,1.55-7.15-.38-10.06-1.13-1.69-3.2-3.43-4.8-3.95-.24-.09.24-.75,1.08-1.5,2.16-1.79,2.92-3.53,2.92-6.58,0-4.37-1.69-7.33-5.41-9.31-1.74-.99-2.68-1.03-13.26-1.18l-11.43-.14v19.79ZM60.68,11.32c1.65,1.65,1.74,4.04.14,5.74-1.03,1.13-1.36,1.18-5.97,1.18h-4.84v-3.9c0-2.16.14-4.09.38-4.28.19-.24,2.3-.28,4.7-.19,3.95.19,4.47.28,5.6,1.46ZM62.75,26.65c2.4,2.4,1.5,6.16-1.83,7.52-.8.33-3.15.52-6.02.42l-4.65-.14-.14-4.61-.14-4.56h5.69c5.69,0,5.74,0,7.1,1.36Z"/>
      <path class="cls-2" d="M27.44,6.95v1.41h9.4v-2.82h-9.4v1.41Z"/>
      <path class="cls-2" d="M2.15,24.44c.14,5.78.33,7.05,1.27,9.17,1.32,2.96,4.84,6.39,7.85,7.71,5.27,2.26,12.32,2.02,17.21-.61,3.29-1.74,5.27-3.86,6.91-7.43,1.08-2.35,1.18-3.15,1.22-8.93v-6.35h-8.93l-.24,6.11c-.28,6.68-.52,7.52-3.1,9.45-3.57,2.77-9.69,1.69-12.04-2.07-.94-1.5-1.08-2.49-1.27-7.76l-.14-5.97H1.96l.19,6.68Z"/>
      <circle class="cls-1" cx="6.95" cy="6.95" r="6.95"/>
    </g>
  </g>
</svg>